<?xml version="1.0" encoding="utf-8"?>
<!-- Generator: Adobe Illustrator 22.1.0, SVG Export Plug-In . SVG Version: 6.00 Build 0)  -->
<svg version="1.1" id="Layer_1" xmlns="http://www.w3.org/2000/svg" xmlns:xlink="http://www.w3.org/1999/xlink" x="0px" y="0px"
	 viewBox="0 0 180 180" style="enable-background:new 0 0 180 180;" xml:space="preserve">
<style type="text/css">
	.st0{fill:#00513F;}
	.st1{fill:#EDEDED;}
</style>
<rect class="st0" width="180" height="180"/>
<g>
	<path class="st1" d="M90.3,111.2c-12.4,3-24.9,5.9-37.5,8c-3.5,0.6-7.8,1.6-11.3,0.5c-1.4-0.5-2.6-1.5-2.8-3
		c-0.2-1.1,0.2-2,0.7-2.9c-2.8,1.1-5.6,2.4-8.3,3.7c-2.5,1.1-5.1,2.5-7.8,3c-3.2,0.6-5.4-1.8-3.6-4.8c2.5-4.2,7.7-7.4,12.2-8.8
		c4.1-1.2,8.7-1.2,12.8-0.1c1.5,0.4,1.8,1.8,1.5,2.9c0.1,0.1,0.1,0.2,0.2,0.4c0.4,1.5-0.6,2.8-1.5,3.9c-0.1,0.1-0.7,1-1.1,1.5
		c0.6,0.1,1.3,0,1.9,0c4.6-0.2,9.1-1.2,13.5-2.1c10-2,20-4.2,29.9-6.6C92,106.1,93.2,110.5,90.3,111.2z M34.7,110.8
		c-1.6,0.3-3.2,0.9-4.6,1.6c-0.9,0.5-1.7,1-2.5,1.6c0.4-0.2,0.8-0.4,1.2-0.6C30.7,112.6,32.7,111.7,34.7,110.8z"/>
	<path class="st1" d="M159.4,112.7c-7.7,2.4-15.5,4.6-23.4,5.9c-4.7,0.8-9.5,1.5-14.2,1.1c-4.5-0.4-9.5-1.9-11.3-6.5
		c-0.1-0.2-0.1-0.4-0.2-0.6c-0.7,0.7-1.4,1.5-2.2,2.1c-4.8,4.2-11,6.3-17.3,6.1c-2.6-0.1-5.7-0.7-6.7-3.4c-1-2.6,0.6-5.5,2.3-7.4
		c4-4.5,10.9-5.1,15.7-1.5c2.4,1.7,0.1,5.7-2.3,3.9c-1.7-1.3-4-2-6.1-1.7c-1.5,0.3-2.9,1.2-3.9,2.3c-0.5,0.5-1.7,1.9-1.5,2.8
		c0,0,0.1,0.1,0.3,0.2c0.5,0.1,0.9,0.2,1.4,0.3c1.4,0.1,2.9,0,4.3-0.2c5.5-0.7,9.7-3.2,13.3-7.4c2.6-3,4.3-6.5,5.7-10.1
		c6.6-16.5,13-30.4,16.1-36.6c0.7-1.4,1.7-3.4,3.6-2.8c1.8,0.5,1.8,2.3,1.4,3.8c-1,4.2-10.6,24.9-16.1,36.3
		c-1.4,2.8-2.7,5.5-3.5,8.5c-0.4,1.4-0.4,1.4-0.4,2.6c0,0.1,0.1,0.5,0.1,0.6c0,0.1,0,0.2,0.1,0.3c0,0.1,0.1,0.3,0.1,0.4
		c0,0.1,0.1,0.2,0.1,0.3c0.1,0.2,0.2,0.4,0.4,0.6c0,0,0,0,0,0c0.2,0.2,0.5,0.5,0.7,0.7c0,0,0.1,0.1,0.1,0.1c0,0,0.1,0,0.1,0.1
		c0.2,0.1,0.3,0.2,0.5,0.3c0.2,0.1,0.9,0.5,0.9,0.4c2.4,1,4.5,1.1,7.1,1.1c11.4,0,22.9-3.6,33.7-6.9
		C161,107.4,162.2,111.8,159.4,112.7z M130.2,61.5c0-0.1,0-0.1,0.1-0.2C130.4,61,130.1,61.1,130.2,61.5z"/>
</g>
</svg>
