<svg xmlns="http://www.w3.org/2000/svg" viewBox="0 0 85.45 36.81"><defs><style>.cls-1{fill:#999;}</style></defs><title>cd2Asset 1</title><g id="Layer_2" data-name="Layer 2"><g id="about"><path class="cls-1" d="M39,15c-1.89.27-3.78.54-5.67.85-1.19.19-2.39.39-3.58.62-.84.16-1.67.38-2.51.51a2.18,2.18,0,0,1-1.61-.15.87.87,0,0,1-.11-1.19l.19-.27a3.74,3.74,0,0,1-1.37-.16c-.54.42-1.08.83-1.64,1.22s-1,.82-1.54.83a.7.7,0,0,1-.63-.93,7.56,7.56,0,0,1,1.19-2.15c.4-.59,1.36,0,1,.57l-.42.64c.35-.24.7-.5,1-.76-.32-.33-.47-.8,0-1.11a3.28,3.28,0,0,1,1.76-.17.57.57,0,0,1,.42.92,4.53,4.53,0,0,0,1.83-.62c.69-.34,1.27.34.77.94A12.74,12.74,0,0,1,27,15.69l-.27.27a12,12,0,0,0,1.57-.29c3.45-.72,7-1.22,10.44-1.71C39.4,13.86,39.7,14.93,39,15ZM26.44,16.29a0,0,0,0,1,0,0S26.45,16.31,26.44,16.29Z"/><path class="cls-1" d="M53.59,14.94c-.72.26-1.46.52-2.19.75-1.47.48-3,.84-4.44,1.33a18.83,18.83,0,0,0-4.28,2,13.84,13.84,0,0,0-1.17.84q-1.86,5.15-4,10.18c-.7,1.64-1.41,3.3-2.27,4.86-.33.6-1.14,2.32-2.09,1.79-.76-.43-.51-1.9-.43-2.59a24.06,24.06,0,0,1,1.13-4.94,22.17,22.17,0,0,1,2.89-5.7,20.76,20.76,0,0,1,3.84-4.25c.27-.75.53-1.51.79-2.26l-.19.2a2.5,2.5,0,0,1-2.37.46A1.64,1.64,0,0,1,37.63,16a2.72,2.72,0,0,1,1-2c.53-.47,1.32.31.78.78s-.89,1.12-.48,1.68a1.18,1.18,0,0,0,.18.08,1.83,1.83,0,0,0,.32.07,1.49,1.49,0,0,0,.63-.05c.42-.13.66-.55.91-.88.4-.52.77-1.08,1.22-1.56s.92-.41,1.07.13a1,1,0,0,1,0,.49,24.72,24.72,0,0,1-1,3.26l0,.06c.47-.3,1-.6,1.46-.86a23.89,23.89,0,0,1,4.92-1.84q2.41-.64,4.75-1.51C54,13.62,54.25,14.69,53.59,14.94ZM39.75,21.49a23.3,23.3,0,0,0-3.07,4.13,22.07,22.07,0,0,0-2.45,6.3,12.84,12.84,0,0,0-.49,3.34l.06-.09c.16-.24.3-.49.44-.74.36-.65.69-1.33,1-2,.86-1.81,1.63-3.66,2.38-5.52S39.07,23.31,39.75,21.49Zm2.41-7s0,0,0,0Z"/><path class="cls-1" d="M68.35,15l-7.64,1.36A36.36,36.36,0,0,1,57,17a9.82,9.82,0,0,1-3.29-.16,1.89,1.89,0,0,1-1.15-.73,1.7,1.7,0,0,1,0-1.79,3.94,3.94,0,0,1,2.57-1.06,5.26,5.26,0,0,1,2.18.35.56.56,0,0,1,.13,1,14.89,14.89,0,0,1-3,1.24,7.42,7.42,0,0,0,1.05.08,14.46,14.46,0,0,0,2.28-.12c1.53-.21,3.07-.55,4.6-.82l5.72-1C68.75,13.83,69.05,14.9,68.35,15Zm-15-.08h0S53.4,14.91,53.39,15Zm1.93-.61a2.69,2.69,0,0,0-.4,0,3.22,3.22,0,0,0-.77.19c-.23.09-.43.27-.65.36h0A12.57,12.57,0,0,0,55.32,14.34Z"/><path class="cls-1" d="M82.63,15q-2.84.88-5.73,1.52a14.8,14.8,0,0,1-4.94.57,1.54,1.54,0,0,1-1.24-.68,1.56,1.56,0,0,1-.09-1c0-.08,0-.21,0-.34-.51.3-1,.63-1.49,1l-.24.16h0l0,0c-.16.15-.32.32-.47.48s-.58.73-1,.86a.55.55,0,0,1-.54-.14c-.42-.45.14-1.43.3-1.88,2.57-7,2.28-5.94,5-12.88.26-.66,1.33-.37,1.07.29-.91,2.34-2.39,6-3.73,9.55-.33.86-.65,1.72-1,2.58l.32-.22a11.41,11.41,0,0,1,1.71-1,.87.87,0,0,1,.93,0c.54.4.28,1.13.19,1.67a.93.93,0,0,0,0,.37h0a1,1,0,0,0,.5.12,16.44,16.44,0,0,0,5-.69c1.73-.39,3.45-.86,5.14-1.39C83,13.74,83.31,14.82,82.63,15Z"/><path class="cls-1" d="M15.49,33.27a3.27,3.27,0,0,1-1.1-.23c-3.05-1.13-9.28-6.83-8.62-9.83.14-.63.38-1.7,10.8-2.41l.71-.05c.07-7.61-.83-16.7-2.84-19.07-.4-.47-.65-.42-1-.15C8.42,5.35,1.34,23,1.27,23.19A.66.66,0,1,1,.05,22.7C.34,22,7.33,4.52,12.63.48a1.88,1.88,0,0,1,2.82.35c2,2.4,3.19,11.81,3.15,19.84,5.62-.32,12.81-.49,21-.5,18.92,0,37.55.86,45.34,2.12a.66.66,0,0,1-.22,1.3C72.07,21.54,37,21,18.59,22c-.11,5.09-.72,9.4-1.92,10.68A1.32,1.32,0,0,1,15.49,33.27Zm-8.44-9.7c-.17,1.25,1.92,4,4.73,6.31,2.25,1.81,3.56,2.17,3.81,2.06l.11-.15c.9-.86,1.44-4.86,1.56-9.71C11.6,22.42,7.77,22.92,7.05,23.57Z"/></g></g></svg>